<?xml version="1.0" encoding="UTF-8" standalone="no"?>
<!DOCTYPE svg PUBLIC "-//W3C//DTD SVG 1.1//EN" "http://www.w3.org/Graphics/SVG/1.1/DTD/svg11.dtd">
<svg width="100%" height="100%" viewBox="0 0 67 67" version="1.1" xmlns="http://www.w3.org/2000/svg" xmlns:xlink="http://www.w3.org/1999/xlink" xml:space="preserve" xmlns:serif="http://www.serif.com/" style="fill-rule:evenodd;clip-rule:evenodd;stroke-linejoin:round;stroke-miterlimit:2;">
    <g transform="matrix(1,0,0,1,-216.609,-183.313)">
        <path d="M217.182,183.313L273.506,183.313C280.821,183.313 283.609,184.684 283.609,191.999L283.609,249.734C283.609,250.052 283.349,250.313 283.031,250.313L260.62,250.313C252.599,250.313 246.094,243.807 246.094,235.781L246.094,221.396C246.094,221.083 245.839,220.823 245.521,220.823L239.156,220.823C238.786,220.823 238.516,220.474 238.599,220.115L240.286,213.234C240.349,212.979 240.578,212.797 240.844,212.797L245.521,212.797C245.839,212.797 246.094,212.542 246.094,212.224L246.094,203.87C246.094,203.458 246.516,203.177 246.896,203.344L253.776,206.328C253.984,206.417 254.12,206.625 254.12,206.854L254.12,212.224C254.12,212.542 254.375,212.797 254.693,212.797L264.938,212.797C265.307,212.797 265.583,213.146 265.495,213.505L263.807,220.385C263.75,220.646 263.516,220.823 263.255,220.823L254.693,220.823C254.375,220.823 254.12,221.083 254.12,221.396L254.12,235.781C254.12,239.375 257.031,242.281 260.62,242.281L275.005,242.281C275.323,242.281 275.578,242.026 275.578,241.708L275.578,196.319C275.462,192.887 273.816,191.129 270.16,191.313L232.054,191.339C227.36,191.188 224.591,192.978 224.635,197.605L224.635,245.724C224.635,246.042 224.38,246.297 224.063,246.297L217.182,246.297C216.865,246.297 216.609,246.042 216.609,245.724L216.609,183.885C216.609,183.568 216.865,183.313 217.182,183.313" style="fill:rgb(84,84,84);fill-rule:nonzero;"/>
    </g>
</svg>
